<mxfile host="app.diagrams.net" modified="2024-03-31T03:44:32.640Z" agent="Mozilla/5.0 (Windows NT 10.0; Win64; x64; rv:124.0) Gecko/20100101 Firefox/124.0" etag="mrSolY09VrGzJgs3m4sh" version="23.1.1" type="device">
  <diagram id="R2lEEEUBdFMjLlhIrx00" name="Page-1">
    <mxGraphModel dx="1750" dy="883" grid="1" gridSize="10" guides="1" tooltips="1" connect="1" arrows="1" fold="1" page="1" pageScale="1" pageWidth="1169" pageHeight="827" math="0" shadow="0" extFonts="Permanent Marker^https://fonts.googleapis.com/css?family=Permanent+Marker">
      <root>
        <mxCell id="0" />
        <mxCell id="1" parent="0" />
        <mxCell id="tK9ZSYhV5JUbNaRq7ctr-4" style="edgeStyle=orthogonalEdgeStyle;rounded=0;orthogonalLoop=1;jettySize=auto;html=1;exitX=1;exitY=0.5;exitDx=0;exitDy=0;endArrow=none;endFill=0;" edge="1" parent="1" source="tK9ZSYhV5JUbNaRq7ctr-1" target="tK9ZSYhV5JUbNaRq7ctr-2">
          <mxGeometry relative="1" as="geometry" />
        </mxCell>
        <mxCell id="tK9ZSYhV5JUbNaRq7ctr-1" value="Admin" style="rounded=0;whiteSpace=wrap;html=1;fillColor=#f8cecc;strokeColor=#b85450;" vertex="1" parent="1">
          <mxGeometry x="170" y="320" width="120" height="60" as="geometry" />
        </mxCell>
        <mxCell id="tK9ZSYhV5JUbNaRq7ctr-5" style="edgeStyle=orthogonalEdgeStyle;rounded=0;orthogonalLoop=1;jettySize=auto;html=1;exitX=1;exitY=0.5;exitDx=0;exitDy=0;entryX=0;entryY=0.5;entryDx=0;entryDy=0;endArrow=none;endFill=0;" edge="1" parent="1" source="tK9ZSYhV5JUbNaRq7ctr-2" target="tK9ZSYhV5JUbNaRq7ctr-3">
          <mxGeometry relative="1" as="geometry" />
        </mxCell>
        <mxCell id="tK9ZSYhV5JUbNaRq7ctr-2" value="Manage" style="rhombus;whiteSpace=wrap;html=1;fillColor=#fff2cc;strokeColor=#d6b656;" vertex="1" parent="1">
          <mxGeometry x="530" y="310" width="80" height="80" as="geometry" />
        </mxCell>
        <mxCell id="tK9ZSYhV5JUbNaRq7ctr-3" value="Student" style="rounded=0;whiteSpace=wrap;html=1;fillColor=#f8cecc;strokeColor=#b85450;" vertex="1" parent="1">
          <mxGeometry x="800" y="320" width="120" height="60" as="geometry" />
        </mxCell>
        <mxCell id="tK9ZSYhV5JUbNaRq7ctr-6" value="N" style="text;html=1;strokeColor=none;fillColor=none;align=center;verticalAlign=middle;whiteSpace=wrap;rounded=0;" vertex="1" parent="1">
          <mxGeometry x="280" y="320" width="60" height="30" as="geometry" />
        </mxCell>
        <mxCell id="tK9ZSYhV5JUbNaRq7ctr-7" value="M" style="text;html=1;strokeColor=none;fillColor=none;align=center;verticalAlign=middle;whiteSpace=wrap;rounded=0;" vertex="1" parent="1">
          <mxGeometry x="740" y="320" width="60" height="30" as="geometry" />
        </mxCell>
        <mxCell id="tK9ZSYhV5JUbNaRq7ctr-11" style="edgeStyle=orthogonalEdgeStyle;rounded=0;orthogonalLoop=1;jettySize=auto;html=1;exitX=0.5;exitY=1;exitDx=0;exitDy=0;entryX=0.5;entryY=0;entryDx=0;entryDy=0;endArrow=none;endFill=0;" edge="1" parent="1" source="tK9ZSYhV5JUbNaRq7ctr-8" target="tK9ZSYhV5JUbNaRq7ctr-1">
          <mxGeometry relative="1" as="geometry" />
        </mxCell>
        <mxCell id="tK9ZSYhV5JUbNaRq7ctr-8" value="Username" style="ellipse;whiteSpace=wrap;html=1;fillColor=#dae8fc;strokeColor=#6c8ebf;" vertex="1" parent="1">
          <mxGeometry x="120" y="150" width="120" height="80" as="geometry" />
        </mxCell>
        <mxCell id="tK9ZSYhV5JUbNaRq7ctr-13" style="edgeStyle=orthogonalEdgeStyle;rounded=0;orthogonalLoop=1;jettySize=auto;html=1;exitX=0.5;exitY=0;exitDx=0;exitDy=0;entryX=0.5;entryY=1;entryDx=0;entryDy=0;endArrow=none;endFill=0;" edge="1" parent="1" source="tK9ZSYhV5JUbNaRq7ctr-9" target="tK9ZSYhV5JUbNaRq7ctr-1">
          <mxGeometry relative="1" as="geometry" />
        </mxCell>
        <mxCell id="tK9ZSYhV5JUbNaRq7ctr-9" value="Password" style="ellipse;whiteSpace=wrap;html=1;fillColor=#dae8fc;strokeColor=#6c8ebf;" vertex="1" parent="1">
          <mxGeometry x="250" y="470" width="120" height="80" as="geometry" />
        </mxCell>
        <mxCell id="tK9ZSYhV5JUbNaRq7ctr-12" style="edgeStyle=orthogonalEdgeStyle;rounded=0;orthogonalLoop=1;jettySize=auto;html=1;exitX=0;exitY=1;exitDx=0;exitDy=0;entryX=0.75;entryY=0;entryDx=0;entryDy=0;endArrow=none;endFill=0;" edge="1" parent="1" source="tK9ZSYhV5JUbNaRq7ctr-10" target="tK9ZSYhV5JUbNaRq7ctr-1">
          <mxGeometry relative="1" as="geometry" />
        </mxCell>
        <mxCell id="tK9ZSYhV5JUbNaRq7ctr-10" value="&lt;u&gt;AdminID&lt;/u&gt;" style="ellipse;whiteSpace=wrap;html=1;fillColor=#dae8fc;strokeColor=#6c8ebf;" vertex="1" parent="1">
          <mxGeometry x="350" y="140" width="120" height="80" as="geometry" />
        </mxCell>
        <mxCell id="tK9ZSYhV5JUbNaRq7ctr-14" value="&lt;u&gt;StudentID&lt;/u&gt;" style="ellipse;whiteSpace=wrap;html=1;fillColor=#dae8fc;strokeColor=#6c8ebf;" vertex="1" parent="1">
          <mxGeometry x="720" y="130" width="120" height="80" as="geometry" />
        </mxCell>
        <mxCell id="tK9ZSYhV5JUbNaRq7ctr-24" style="edgeStyle=orthogonalEdgeStyle;rounded=0;orthogonalLoop=1;jettySize=auto;html=1;exitX=0.5;exitY=0;exitDx=0;exitDy=0;entryX=0.25;entryY=1;entryDx=0;entryDy=0;endArrow=none;endFill=0;" edge="1" parent="1" source="tK9ZSYhV5JUbNaRq7ctr-15" target="tK9ZSYhV5JUbNaRq7ctr-3">
          <mxGeometry relative="1" as="geometry" />
        </mxCell>
        <mxCell id="tK9ZSYhV5JUbNaRq7ctr-15" value="Email" style="ellipse;whiteSpace=wrap;html=1;fillColor=#dae8fc;strokeColor=#6c8ebf;" vertex="1" parent="1">
          <mxGeometry x="700" y="440" width="120" height="80" as="geometry" />
        </mxCell>
        <mxCell id="tK9ZSYhV5JUbNaRq7ctr-23" style="edgeStyle=orthogonalEdgeStyle;rounded=0;orthogonalLoop=1;jettySize=auto;html=1;exitX=0.5;exitY=0;exitDx=0;exitDy=0;entryX=1;entryY=0.5;entryDx=0;entryDy=0;endArrow=none;endFill=0;" edge="1" parent="1" source="tK9ZSYhV5JUbNaRq7ctr-16" target="tK9ZSYhV5JUbNaRq7ctr-3">
          <mxGeometry relative="1" as="geometry" />
        </mxCell>
        <mxCell id="tK9ZSYhV5JUbNaRq7ctr-16" value="Phone Number" style="ellipse;whiteSpace=wrap;html=1;fillColor=#dae8fc;strokeColor=#6c8ebf;" vertex="1" parent="1">
          <mxGeometry x="990" y="374" width="120" height="80" as="geometry" />
        </mxCell>
        <mxCell id="tK9ZSYhV5JUbNaRq7ctr-17" value="Name" style="ellipse;whiteSpace=wrap;html=1;fillColor=#dae8fc;strokeColor=#6c8ebf;" vertex="1" parent="1">
          <mxGeometry x="890" y="140" width="120" height="80" as="geometry" />
        </mxCell>
        <mxCell id="tK9ZSYhV5JUbNaRq7ctr-22" style="edgeStyle=orthogonalEdgeStyle;rounded=0;orthogonalLoop=1;jettySize=auto;html=1;exitX=0.5;exitY=0;exitDx=0;exitDy=0;endArrow=none;endFill=0;" edge="1" parent="1" source="tK9ZSYhV5JUbNaRq7ctr-18" target="tK9ZSYhV5JUbNaRq7ctr-3">
          <mxGeometry relative="1" as="geometry" />
        </mxCell>
        <mxCell id="tK9ZSYhV5JUbNaRq7ctr-18" value="Address" style="ellipse;whiteSpace=wrap;html=1;fillColor=#dae8fc;strokeColor=#6c8ebf;" vertex="1" parent="1">
          <mxGeometry x="860" y="500" width="120" height="80" as="geometry" />
        </mxCell>
        <mxCell id="tK9ZSYhV5JUbNaRq7ctr-19" style="edgeStyle=orthogonalEdgeStyle;rounded=0;orthogonalLoop=1;jettySize=auto;html=1;exitX=0.5;exitY=1;exitDx=0;exitDy=0;entryX=0.336;entryY=0.012;entryDx=0;entryDy=0;entryPerimeter=0;endArrow=none;endFill=0;" edge="1" parent="1" source="tK9ZSYhV5JUbNaRq7ctr-14" target="tK9ZSYhV5JUbNaRq7ctr-3">
          <mxGeometry relative="1" as="geometry" />
        </mxCell>
        <mxCell id="tK9ZSYhV5JUbNaRq7ctr-20" style="edgeStyle=orthogonalEdgeStyle;rounded=0;orthogonalLoop=1;jettySize=auto;html=1;exitX=0.5;exitY=1;exitDx=0;exitDy=0;entryX=0.917;entryY=0;entryDx=0;entryDy=0;entryPerimeter=0;endArrow=none;endFill=0;" edge="1" parent="1" source="tK9ZSYhV5JUbNaRq7ctr-17" target="tK9ZSYhV5JUbNaRq7ctr-3">
          <mxGeometry relative="1" as="geometry" />
        </mxCell>
      </root>
    </mxGraphModel>
  </diagram>
</mxfile>
